<mxfile host="app.diagrams.net" modified="2024-02-22T10:49:40.394Z" agent="Mozilla/5.0 (Windows NT 10.0; Win64; x64; rv:120.0) Gecko/20100101 Firefox/120.0" etag="2tYdmiTf5S8H5h4GQqmV" version="23.0.2" type="device">
  <diagram name="Page-1" id="13e1069c-82ec-6db2-03f1-153e76fe0fe0">
    <mxGraphModel dx="1050" dy="511" grid="1" gridSize="10" guides="1" tooltips="1" connect="1" arrows="1" fold="1" page="1" pageScale="1" pageWidth="1100" pageHeight="850" background="none" math="0" shadow="0">
      <root>
        <mxCell id="0" />
        <mxCell id="1" parent="0" />
        <mxCell id="7baba1c4bc27f4b0-11" value="int n" style="html=1;verticalAlign=bottom;endArrow=block;labelBackgroundColor=none;fontFamily=Verdana;fontSize=12;edgeStyle=elbowEdgeStyle;elbow=vertical;exitX=1;exitY=0;exitDx=0;exitDy=5;exitPerimeter=0;entryX=0.5;entryY=0;entryDx=0;entryDy=0;" parent="1" source="EsR4Vg0_q4SP54D6hTx2-8" target="EsR4Vg0_q4SP54D6hTx2-18" edge="1">
          <mxGeometry relative="1" as="geometry">
            <mxPoint x="150" y="180" as="sourcePoint" />
            <mxPoint x="400" y="192" as="targetPoint" />
            <Array as="points">
              <mxPoint x="280" y="175" />
            </Array>
          </mxGeometry>
        </mxCell>
        <mxCell id="EsR4Vg0_q4SP54D6hTx2-8" value="" style="html=1;points=[[0,0,0,0,5],[0,1,0,0,-5],[1,0,0,0,5],[1,1,0,0,-5]];perimeter=orthogonalPerimeter;outlineConnect=0;targetShapes=umlLifeline;portConstraint=eastwest;newEdgeStyle={&quot;curved&quot;:0,&quot;rounded&quot;:0};" vertex="1" parent="1">
          <mxGeometry x="140" y="170" width="10" height="460" as="geometry" />
        </mxCell>
        <mxCell id="EsR4Vg0_q4SP54D6hTx2-15" value="&lt;div&gt;fibonacciDynamic&lt;/div&gt;" style="shape=umlLifeline;perimeter=lifelinePerimeter;whiteSpace=wrap;html=1;container=1;dropTarget=0;collapsible=0;recursiveResize=0;outlineConnect=0;portConstraint=eastwest;newEdgeStyle={&quot;curved&quot;:0,&quot;rounded&quot;:0};" vertex="1" parent="1">
          <mxGeometry x="95" y="90" width="100" height="80" as="geometry" />
        </mxCell>
        <mxCell id="EsR4Vg0_q4SP54D6hTx2-18" value="n&amp;lt;=1" style="rhombus;whiteSpace=wrap;html=1;" vertex="1" parent="1">
          <mxGeometry x="355" y="200" width="80" height="40" as="geometry" />
        </mxCell>
        <mxCell id="EsR4Vg0_q4SP54D6hTx2-19" value="" style="edgeStyle=orthogonalEdgeStyle;html=1;align=left;verticalAlign=bottom;endArrow=open;endSize=8;strokeColor=#0D0000;rounded=0;" edge="1" source="EsR4Vg0_q4SP54D6hTx2-18" parent="1">
          <mxGeometry x="-1" relative="1" as="geometry">
            <mxPoint x="535" y="290" as="targetPoint" />
          </mxGeometry>
        </mxCell>
        <mxCell id="EsR4Vg0_q4SP54D6hTx2-35" style="edgeStyle=orthogonalEdgeStyle;rounded=0;orthogonalLoop=1;jettySize=auto;html=1;exitX=0.5;exitY=1;exitDx=0;exitDy=0;" edge="1" parent="1" source="EsR4Vg0_q4SP54D6hTx2-22">
          <mxGeometry relative="1" as="geometry">
            <mxPoint x="535" y="460" as="targetPoint" />
          </mxGeometry>
        </mxCell>
        <mxCell id="EsR4Vg0_q4SP54D6hTx2-22" value="&lt;div&gt;map.containsKey(n)&lt;/div&gt;" style="rhombus;whiteSpace=wrap;html=1;" vertex="1" parent="1">
          <mxGeometry x="460" y="290" width="150" height="100" as="geometry" />
        </mxCell>
        <mxCell id="EsR4Vg0_q4SP54D6hTx2-30" value="return map.get(n)" style="text;html=1;align=center;verticalAlign=middle;resizable=0;points=[];autosize=1;strokeColor=none;fillColor=none;" vertex="1" parent="1">
          <mxGeometry x="255" y="308" width="110" height="30" as="geometry" />
        </mxCell>
        <mxCell id="EsR4Vg0_q4SP54D6hTx2-45" value="" style="html=1;verticalAlign=bottom;endArrow=open;dashed=1;endSize=8;curved=0;rounded=0;exitX=0;exitY=0.5;exitDx=0;exitDy=0;" edge="1" parent="1" source="EsR4Vg0_q4SP54D6hTx2-22">
          <mxGeometry relative="1" as="geometry">
            <mxPoint x="230" y="339.5" as="sourcePoint" />
            <mxPoint x="150" y="339.5" as="targetPoint" />
          </mxGeometry>
        </mxCell>
        <mxCell id="EsR4Vg0_q4SP54D6hTx2-46" value="return fib" style="html=1;verticalAlign=bottom;endArrow=open;dashed=1;endSize=8;curved=0;rounded=0;" edge="1" parent="1" target="EsR4Vg0_q4SP54D6hTx2-8">
          <mxGeometry relative="1" as="geometry">
            <mxPoint x="459" y="580" as="sourcePoint" />
            <mxPoint x="160" y="580" as="targetPoint" />
            <Array as="points" />
          </mxGeometry>
        </mxCell>
        <mxCell id="EsR4Vg0_q4SP54D6hTx2-47" value="return n" style="html=1;verticalAlign=bottom;endArrow=open;dashed=1;endSize=8;curved=0;rounded=0;" edge="1" parent="1" target="EsR4Vg0_q4SP54D6hTx2-8">
          <mxGeometry relative="1" as="geometry">
            <mxPoint x="350" y="220" as="sourcePoint" />
            <mxPoint x="160" y="220" as="targetPoint" />
          </mxGeometry>
        </mxCell>
        <mxCell id="EsR4Vg0_q4SP54D6hTx2-54" value="" style="html=1;points=[[0,0,0,0,5],[0,1,0,0,-5],[1,0,0,0,5],[1,1,0,0,-5]];perimeter=orthogonalPerimeter;outlineConnect=0;targetShapes=umlLifeline;portConstraint=eastwest;newEdgeStyle={&quot;curved&quot;:0,&quot;rounded&quot;:0};" vertex="1" parent="1">
          <mxGeometry x="530" y="463" width="10" height="40" as="geometry" />
        </mxCell>
        <mxCell id="EsR4Vg0_q4SP54D6hTx2-55" value="n-1" style="html=1;align=left;spacingLeft=2;endArrow=block;rounded=0;edgeStyle=orthogonalEdgeStyle;curved=0;rounded=0;exitX=1;exitY=0.175;exitDx=0;exitDy=0;exitPerimeter=0;" edge="1" target="EsR4Vg0_q4SP54D6hTx2-54" parent="1" source="EsR4Vg0_q4SP54D6hTx2-54">
          <mxGeometry relative="1" as="geometry">
            <mxPoint x="550" y="470" as="sourcePoint" />
            <Array as="points">
              <mxPoint x="580" y="470" />
              <mxPoint x="580" y="500" />
            </Array>
          </mxGeometry>
        </mxCell>
        <mxCell id="EsR4Vg0_q4SP54D6hTx2-56" value="+" style="text;html=1;align=center;verticalAlign=middle;resizable=0;points=[];autosize=1;strokeColor=none;fillColor=none;" vertex="1" parent="1">
          <mxGeometry x="520" y="498" width="30" height="30" as="geometry" />
        </mxCell>
        <mxCell id="EsR4Vg0_q4SP54D6hTx2-57" value="" style="html=1;points=[[0,0,0,0,5],[0,1,0,0,-5],[1,0,0,0,5],[1,1,0,0,-5]];perimeter=orthogonalPerimeter;outlineConnect=0;targetShapes=umlLifeline;portConstraint=eastwest;newEdgeStyle={&quot;curved&quot;:0,&quot;rounded&quot;:0};" vertex="1" parent="1">
          <mxGeometry x="530" y="528" width="10" height="40" as="geometry" />
        </mxCell>
        <mxCell id="EsR4Vg0_q4SP54D6hTx2-58" value="n-2" style="html=1;align=left;spacingLeft=2;endArrow=block;rounded=0;edgeStyle=orthogonalEdgeStyle;curved=0;rounded=0;exitX=1;exitY=0.175;exitDx=0;exitDy=0;exitPerimeter=0;" edge="1" source="EsR4Vg0_q4SP54D6hTx2-57" target="EsR4Vg0_q4SP54D6hTx2-57" parent="1">
          <mxGeometry relative="1" as="geometry">
            <mxPoint x="550" y="535" as="sourcePoint" />
            <Array as="points">
              <mxPoint x="580" y="535" />
              <mxPoint x="580" y="565" />
            </Array>
          </mxGeometry>
        </mxCell>
        <mxCell id="EsR4Vg0_q4SP54D6hTx2-59" value="fib" style="shape=umlFrame;whiteSpace=wrap;html=1;pointerEvents=0;" vertex="1" parent="1">
          <mxGeometry x="460" y="460" width="220" height="150" as="geometry" />
        </mxCell>
        <mxCell id="EsR4Vg0_q4SP54D6hTx2-60" value="map.put(n, fib)" style="text;html=1;align=center;verticalAlign=middle;resizable=0;points=[];autosize=1;strokeColor=none;fillColor=none;" vertex="1" parent="1">
          <mxGeometry x="520" y="568" width="100" height="30" as="geometry" />
        </mxCell>
        <mxCell id="EsR4Vg0_q4SP54D6hTx2-61" value="no" style="text;html=1;align=center;verticalAlign=middle;resizable=0;points=[];autosize=1;strokeColor=none;fillColor=none;" vertex="1" parent="1">
          <mxGeometry x="450" y="198" width="40" height="30" as="geometry" />
        </mxCell>
        <mxCell id="EsR4Vg0_q4SP54D6hTx2-62" value="no" style="text;html=1;align=center;verticalAlign=middle;resizable=0;points=[];autosize=1;strokeColor=none;fillColor=none;" vertex="1" parent="1">
          <mxGeometry x="530" y="410" width="40" height="30" as="geometry" />
        </mxCell>
      </root>
    </mxGraphModel>
  </diagram>
</mxfile>
